<svg width="13" height="13" viewBox="0 0 13 13" fill="none" xmlns="http://www.w3.org/2000/svg">
<path id="Vector" d="M9.704 2.95789C9.5616 2.95789 9.42239 3.00062 9.30399 3.08068C9.18559 3.16074 9.0933 3.27452 9.03881 3.40765C8.98431 3.54078 8.97005 3.68727 8.99784 3.8286C9.02562 3.96993 9.09419 4.09975 9.19488 4.20164C9.29558 4.30353 9.42387 4.37292 9.56354 4.40104C9.7032 4.42915 9.84797 4.41472 9.97953 4.35958C10.1111 4.30443 10.2235 4.21105 10.3027 4.09124C10.3818 3.97142 10.424 3.83056 10.424 3.68646C10.424 3.49323 10.3481 3.30792 10.2131 3.17129C10.0781 3.03465 9.89496 2.95789 9.704 2.95789ZM12.464 4.42718C12.4523 3.92343 12.3591 3.42503 12.188 2.95182C12.0354 2.54694 11.798 2.18031 11.492 1.87718C11.1949 1.56597 10.8317 1.32721 10.43 1.17896C9.96359 1.00056 9.47051 0.904055 8.972 0.893606C8.336 0.857178 8.132 0.857178 6.5 0.857178C4.868 0.857178 4.664 0.857178 4.028 0.893606C3.52949 0.904055 3.03641 1.00056 2.57 1.17896C2.16901 1.32871 1.80616 1.56727 1.508 1.87718C1.20046 2.17782 0.964506 2.5453 0.818 2.95182C0.641696 3.42378 0.546326 3.92273 0.536 4.42718C0.5 5.07075 0.5 5.27718 0.5 6.92861C0.5 8.58004 0.5 8.78646 0.536 9.43004C0.546326 9.93448 0.641696 10.4334 0.818 10.9054C0.964506 11.3119 1.20046 11.6794 1.508 11.98C1.80616 12.2899 2.16901 12.5285 2.57 12.6782C3.03641 12.8567 3.52949 12.9532 4.028 12.9636C4.664 13 4.868 13 6.5 13C8.132 13 8.336 13 8.972 12.9636C9.47051 12.9532 9.96359 12.8567 10.43 12.6782C10.8317 12.53 11.1949 12.2912 11.492 11.98C11.7993 11.678 12.037 11.3111 12.188 10.9054C12.3591 10.4322 12.4523 9.93378 12.464 9.43004C12.464 8.78646 12.5 8.58004 12.5 6.92861C12.5 5.27718 12.5 5.07075 12.464 4.42718ZM11.384 9.35718C11.3796 9.74257 11.3107 10.1244 11.18 10.4865C11.0842 10.7507 10.9303 10.9894 10.73 11.1847C10.5354 11.3853 10.2999 11.5407 10.04 11.64C9.68222 11.7722 9.30486 11.842 8.924 11.8465C8.324 11.8768 8.102 11.8829 6.524 11.8829C4.946 11.8829 4.724 11.8829 4.124 11.8465C3.72853 11.854 3.33476 11.7923 2.96 11.6643C2.71147 11.5599 2.48681 11.4049 2.3 11.209C2.10085 11.0139 1.94891 10.775 1.856 10.5107C1.70951 10.1435 1.62827 9.753 1.616 9.35718C1.616 8.75003 1.58 8.52539 1.58 6.92861C1.58 5.33182 1.58 5.10718 1.616 4.50003C1.61869 4.10603 1.68977 3.71557 1.826 3.34646C1.93163 3.0902 2.09376 2.86176 2.3 2.67861C2.48229 2.46985 2.70757 2.30406 2.96 2.19289C3.32573 2.05935 3.7112 1.98955 4.1 1.98646C4.7 1.98646 4.922 1.95003 6.5 1.95003C8.078 1.95003 8.3 1.95003 8.9 1.98646C9.28086 1.99088 9.65822 2.06068 10.016 2.19289C10.2887 2.29529 10.5334 2.46176 10.73 2.67861C10.9266 2.86511 11.0803 3.09312 11.18 3.34646C11.3134 3.71617 11.3824 4.10647 11.384 4.50003C11.414 5.10718 11.42 5.33182 11.42 6.92861C11.42 8.52539 11.414 8.75003 11.384 9.35718ZM6.5 3.81396C5.89149 3.81516 5.29698 3.99885 4.79159 4.34182C4.28621 4.68479 3.89263 5.17165 3.66058 5.74089C3.42853 6.31012 3.36843 6.93618 3.48788 7.53996C3.60732 8.14374 3.90094 8.69815 4.33165 9.13313C4.76235 9.56811 5.31081 9.86415 5.90772 9.98384C6.50462 10.1035 7.1232 10.0415 7.68528 9.80558C8.24736 9.56966 8.72773 9.17044 9.06568 8.65838C9.40363 8.14631 9.584 7.54437 9.584 6.92861C9.58479 6.51885 9.50552 6.11297 9.35074 5.73433C9.19597 5.35568 8.96873 5.01174 8.68212 4.72228C8.39551 4.43282 8.05517 4.20355 7.68068 4.04767C7.30619 3.89179 6.90493 3.81236 6.5 3.81396ZM6.5 8.95039C6.10483 8.95039 5.71854 8.83182 5.38997 8.60966C5.0614 8.3875 4.80531 8.07174 4.65409 7.70231C4.50286 7.33288 4.4633 6.92636 4.54039 6.53418C4.61748 6.14199 4.80778 5.78174 5.0872 5.49899C5.36663 5.21624 5.72264 5.02368 6.11021 4.94567C6.49778 4.86766 6.89952 4.9077 7.2646 5.06072C7.62969 5.21374 7.94173 5.47288 8.16128 5.80536C8.38082 6.13784 8.498 6.52874 8.498 6.92861C8.498 7.19411 8.44632 7.45702 8.34591 7.70231C8.2455 7.9476 8.09833 8.17048 7.9128 8.35822C7.72727 8.54597 7.50701 8.69489 7.2646 8.79649C7.02219 8.8981 6.76238 8.95039 6.5 8.95039Z" fill="#292929"/>
</svg>
