<svg width="13" height="12" viewBox="0 0 13 12" fill="none" xmlns="http://www.w3.org/2000/svg">
<g id="download (2) 3">
<path id="Vector" d="M10.2213 6.49993C10.1113 6.49993 9.99627 6.46493 9.88627 6.43993C9.66351 6.39085 9.44461 6.32568 9.23127 6.24493C8.99931 6.16055 8.74435 6.16493 8.51543 6.25724C8.28651 6.34954 8.09981 6.52325 7.99127 6.74493L7.88127 6.96993C7.39427 6.69902 6.94676 6.36255 6.55127 5.96993C6.15866 5.57444 5.82218 5.12693 5.55127 4.63993L5.76127 4.49993C5.98295 4.39139 6.15666 4.2047 6.24897 3.97578C6.34127 3.74686 6.34566 3.49189 6.26127 3.25993C6.18188 3.04614 6.11674 2.82733 6.06627 2.60493C6.04127 2.49493 6.02127 2.37993 6.00627 2.26493C5.94555 1.91274 5.76108 1.59381 5.48608 1.36555C5.21108 1.1373 4.86362 1.01474 4.50627 1.01993H3.00627C2.79079 1.01791 2.5774 1.06234 2.38063 1.1502C2.18386 1.23806 2.00833 1.36728 1.86599 1.52908C1.72365 1.69087 1.61784 1.88143 1.55577 2.08779C1.49369 2.29415 1.47681 2.51146 1.50627 2.72493C1.77264 4.81962 2.72929 6.76587 4.2251 8.25625C5.72091 9.74663 7.67063 10.6962 9.76627 10.9549H9.95627C10.325 10.9555 10.681 10.8202 10.9563 10.5749C11.1145 10.4335 11.2408 10.26 11.327 10.0661C11.4132 9.87216 11.4573 9.66215 11.4563 9.44993V7.94993C11.4501 7.60263 11.3237 7.26821 11.0984 7.00377C10.8732 6.73932 10.5632 6.56125 10.2213 6.49993ZM10.4713 9.49993C10.4712 9.57093 10.456 9.64109 10.4267 9.70574C10.3974 9.7704 10.3546 9.82808 10.3013 9.87493C10.2454 9.92317 10.1801 9.95921 10.1095 9.98073C10.0389 10.0023 9.96455 10.0088 9.89127 9.99993C8.01872 9.75984 6.27939 8.90318 4.94763 7.56508C3.61587 6.22698 2.76748 4.4836 2.53627 2.60993C2.52831 2.53669 2.53529 2.4626 2.55677 2.39213C2.57826 2.32166 2.61381 2.25628 2.66127 2.19993C2.70813 2.1466 2.7658 2.10385 2.83046 2.07454C2.89512 2.04523 2.96528 2.03002 3.03627 2.02993H4.53627C4.65254 2.02735 4.76608 2.06537 4.85734 2.13747C4.9486 2.20957 5.01188 2.31122 5.03627 2.42493C5.05627 2.5616 5.08127 2.6966 5.11127 2.82993C5.16903 3.09351 5.2459 3.35252 5.34127 3.60493L4.64127 3.92993C4.58142 3.95739 4.52758 3.99641 4.48285 4.04473C4.43812 4.09306 4.40337 4.14974 4.38061 4.21153C4.35784 4.27332 4.34751 4.339 4.35019 4.40479C4.35288 4.47059 4.36854 4.53521 4.39627 4.59493C5.11587 6.13631 6.35489 7.37533 7.89627 8.09493C8.018 8.14494 8.15454 8.14494 8.27627 8.09493C8.33863 8.07263 8.39593 8.03816 8.44486 7.99353C8.49378 7.94889 8.53335 7.89499 8.56127 7.83493L8.87127 7.13493C9.12975 7.22737 9.39356 7.30418 9.66127 7.36493C9.7946 7.39493 9.9296 7.41993 10.0663 7.43993C10.18 7.46433 10.2816 7.5276 10.3537 7.61886C10.4258 7.71012 10.4639 7.82366 10.4613 7.93993L10.4713 9.49993Z" fill="#252525"/>
</g>
</svg>
