<svg width="13" height="12" viewBox="0 0 13 12" fill="none" xmlns="http://www.w3.org/2000/svg">
<path d="M6.5 0C3.1863 0 0.5 2.6863 0.5 6C0.5 9.3137 3.1863 12 6.5 12C9.81212 11.9962 12.4962 9.31212 12.5 6C12.5 2.6863 9.8137 0 6.5 0ZM4.49697 0.988147C3.86804 1.67904 3.38626 2.69421 3.12328 3.9H1.52367C2.08357 2.57483 3.15906 1.52344 4.49697 0.988147ZM1.1 6C1.1 5.47892 1.17782 4.97673 1.31555 4.5H3.01356C2.942 4.97882 2.9 5.47918 2.9 6C2.9 6.52083 2.942 7.02118 3.01356 7.5H1.31555C1.17782 7.02327 1.1 6.52108 1.1 6ZM1.52367 8.1H3.12328C3.38626 9.30579 3.86804 10.321 4.49697 11.0119C3.15906 10.4766 2.08357 9.42517 1.52367 8.1ZM6.2 11.3726C5.08939 11.1732 4.15497 9.87931 3.73613 8.1H6.2V11.3726ZM6.2 7.5H3.62019C3.5434 7.02312 3.5 6.52086 3.5 6C3.5 5.47914 3.5434 4.97688 3.62019 4.5H6.2V7.5ZM6.2 3.9H3.73613C4.15497 2.12069 5.08939 0.826794 6.2 0.627356V3.9ZM11.4744 3.9H9.87672C9.61415 2.69612 9.13357 1.68204 8.50607 0.991223C9.84113 1.52743 10.9143 2.57728 11.4744 3.9ZM6.8 0.627356C7.91061 0.826794 8.84503 2.12069 9.26387 3.9H6.8V0.627356ZM6.8 4.5H9.37981C9.4566 4.97688 9.5 5.47914 9.5 6C9.5 6.52086 9.4566 7.02312 9.37981 7.5H6.8V4.5ZM6.8 11.3726V8.1H9.26387C8.84503 9.87931 7.91061 11.1732 6.8 11.3726ZM8.50303 11.0119C9.13196 10.321 9.61375 9.30579 9.87672 8.1H11.4763C10.9164 9.42517 9.84094 10.4766 8.50303 11.0119ZM9.98644 7.5C10.058 7.02118 10.1 6.52083 10.1 6C10.1 5.47918 10.058 4.97882 9.98644 4.5H11.6829C11.8211 4.9767 11.8994 5.47888 11.9 6C11.9 6.52108 11.8222 7.02327 11.6844 7.5H9.98644Z" fill="#292929"/>
</svg>
