<svg width="53" height="53" viewBox="0 0 53 53" fill="none" xmlns="http://www.w3.org/2000/svg">
<g id="download (17) 1" clip-path="url(#clip0_4968_2383)">
<path id="Vector" d="M47.429 11.3028C47.4054 11.1985 47.3615 11.0999 47.2997 11.0127C47.2379 10.9254 47.1595 10.8513 47.069 10.7944L43.3653 8.4642L42.8573 10.0659L45.5141 11.7376L39.1002 21.9186L37.1532 28.0612L47.324 11.9154C47.4391 11.7331 47.4766 11.5123 47.429 11.302V11.3028ZM10.9069 8.46461L7.20356 10.7948C7.11319 10.8516 7.0349 10.9257 6.97317 11.0128C6.91144 11.0999 6.86748 11.1983 6.8438 11.3024C6.82011 11.4065 6.81717 11.5143 6.83515 11.6195C6.85312 11.7248 6.89165 11.8254 6.94854 11.9158L17.1186 28.0604L15.1715 21.9178L8.75852 11.7372L11.4149 10.0663L10.9069 8.46461ZM17.989 2.47785L11.8879 4.40985C11.6824 4.47489 11.5111 4.61889 11.4118 4.81018C11.3124 5.00147 11.293 5.22439 11.358 5.42995L17.989 26.3492V20.9648L13.1549 5.71426L17.989 4.18371V2.47785ZM42.3842 4.40945L36.7875 2.6377V4.34355L41.1172 5.71426L36.7879 19.3733V24.7572L42.9138 5.42995C42.9461 5.3282 42.958 5.22108 42.9489 5.11472C42.9398 5.00836 42.9098 4.90484 42.8606 4.81007C42.8115 4.7153 42.7442 4.63114 42.6625 4.5624C42.5808 4.49366 42.486 4.44169 42.3842 4.40945ZM35.4412 32.2131V1.25643C35.4411 1.04075 35.3554 0.833944 35.2028 0.681476C35.0503 0.529008 34.8434 0.443359 34.6278 0.443359H20.1488C19.9331 0.443359 19.7262 0.529008 19.5737 0.681476C19.4211 0.833944 19.3354 1.04075 19.3353 1.25643V32.2131C19.3355 32.4287 19.4213 32.6354 19.5738 32.7878C19.7264 32.9402 19.9332 33.0258 20.1488 33.0258H34.6269C34.8426 33.0258 35.0493 32.9402 35.2019 32.7878C35.3544 32.6354 35.4402 32.4287 35.4404 32.2131H35.4412ZM33.8143 31.4005H20.9622V2.06868H33.8135V31.4005H33.8143Z" fill="#AEAEFF"/>
<path id="Vector_2" d="M32.9173 16.7348C32.9173 13.6888 30.4378 11.2109 27.3897 11.2109C24.3416 11.2109 21.863 13.6888 21.863 16.7344C21.863 19.7809 24.342 22.2587 27.3901 22.2587C30.4382 22.2587 32.9173 19.7805 32.9173 16.7348ZM23.4899 16.7348C23.4899 14.5852 25.2393 12.8367 27.3901 12.8367C29.5409 12.8367 31.2907 14.5856 31.2907 16.7348C31.2907 18.884 29.5409 20.6326 27.3901 20.6326C25.2393 20.6326 23.4899 18.884 23.4899 16.7348Z" fill="#AEAEFF"/>
<path id="Vector_3" d="M28.968 15.9535C29.2506 15.9535 29.526 16.1732 29.526 16.7589C29.526 17.1616 29.3633 17.5292 29.1514 17.7481C29.0522 17.8538 28.996 17.9531 28.996 18.0519C28.9952 18.1521 29.0341 18.2485 29.1042 18.32C29.1744 18.3916 29.27 18.4323 29.3702 18.4334C29.4556 18.4334 29.5329 18.4054 29.5968 18.3631C29.936 18.1231 30.1621 17.6566 30.2329 17.0912H30.6429C30.6865 17.0912 30.7297 17.0827 30.77 17.066C30.8103 17.0494 30.847 17.025 30.8778 16.9941C30.9087 16.9633 30.9332 16.9267 30.9499 16.8864C30.9666 16.8461 30.9752 16.8029 30.9752 16.7593C30.9739 16.6722 30.9383 16.5891 30.876 16.5282C30.8138 16.4672 30.73 16.4334 30.6429 16.4339H30.2402C30.141 15.5301 29.5968 15.1344 28.9676 15.1344C27.2641 15.1344 27.7376 17.7131 26.7057 17.7131C26.2672 17.7131 26.0549 17.4019 26.0549 16.7593C26.0549 16.2716 26.2953 15.897 26.5926 15.6005C26.663 15.5301 26.7476 15.4451 26.7476 15.2898C26.7472 15.2224 26.7287 15.1564 26.6943 15.0985C26.6598 15.0406 26.6105 14.993 26.5514 14.9606C26.4924 14.9282 26.4257 14.9121 26.3584 14.9141C26.2911 14.916 26.2255 14.9359 26.1684 14.9717C25.7796 15.2117 25.4119 15.7486 25.3269 16.4343H24.9315C24.8444 16.4337 24.7606 16.4674 24.6982 16.5283C24.6359 16.5892 24.6002 16.6722 24.5988 16.7593C24.5988 16.9431 24.7473 17.0912 24.9315 17.0912H25.3269C25.4192 18.0381 25.928 18.5323 26.7057 18.5323C28.473 18.5323 28.0418 15.9535 28.968 15.9535ZM29.1302 24.4303H25.7751C25.6657 24.4261 25.5566 24.444 25.4542 24.4829C25.3519 24.5219 25.2585 24.5811 25.1796 24.657C25.1007 24.7329 25.038 24.8239 24.9951 24.9246C24.9522 25.0254 24.9301 25.1337 24.9301 25.2432C24.9301 25.3527 24.9522 25.461 24.9951 25.5618C25.038 25.6625 25.1007 25.7535 25.1796 25.8294C25.2585 25.9053 25.3519 25.9645 25.4542 26.0035C25.5566 26.0424 25.6657 26.0603 25.7751 26.0561H29.1302C29.2396 26.0603 29.3488 26.0424 29.4511 26.0035C29.5534 25.9645 29.6468 25.9053 29.7257 25.8294C29.8046 25.7535 29.8674 25.6625 29.9102 25.5618C29.9531 25.461 29.9752 25.3527 29.9752 25.2432C29.9752 25.1337 29.9531 25.0254 29.9102 24.9246C29.8674 24.8239 29.8046 24.7329 29.7257 24.657C29.6468 24.5811 29.5534 24.5219 29.4511 24.4829C29.3488 24.444 29.2396 24.4261 29.1302 24.4303ZM32.2751 24.4303H31.4368C31.3275 24.4261 31.2183 24.444 31.116 24.4829C31.0137 24.5219 30.9203 24.5811 30.8414 24.657C30.7625 24.7329 30.6997 24.8239 30.6568 24.9246C30.614 25.0254 30.5919 25.1337 30.5919 25.2432C30.5919 25.3527 30.614 25.461 30.6568 25.5618C30.6997 25.6625 30.7625 25.7535 30.8414 25.8294C30.9203 25.9053 31.0137 25.9645 31.116 26.0035C31.2183 26.0424 31.3275 26.0603 31.4368 26.0561H32.2755C32.3849 26.0603 32.4941 26.0424 32.5964 26.0035C32.6987 25.9645 32.7921 25.9053 32.871 25.8294C32.9499 25.7535 33.0127 25.6625 33.0555 25.5618C33.0984 25.461 33.1205 25.3527 33.1205 25.2432C33.1205 25.1337 33.0984 25.0254 33.0555 24.9246C33.0127 24.8239 32.9499 24.7329 32.871 24.657C32.7921 24.5811 32.6987 24.5219 32.5964 24.4829C32.4941 24.444 32.3845 24.4261 32.2751 24.4303ZM22.6302 26.0561H23.4689C23.5783 26.0603 23.6874 26.0424 23.7897 26.0035C23.892 25.9645 23.9854 25.9053 24.0643 25.8294C24.1432 25.7535 24.206 25.6625 24.2489 25.5618C24.2918 25.461 24.3139 25.3527 24.3139 25.2432C24.3139 25.1337 24.2918 25.0254 24.2489 24.9246C24.206 24.8239 24.1432 24.7329 24.0643 24.657C23.9854 24.5811 23.892 24.5219 23.7897 24.4829C23.6874 24.444 23.5783 24.4261 23.4689 24.4303H22.6302C22.5208 24.4261 22.4117 24.444 22.3093 24.4829C22.207 24.5219 22.1136 24.5811 22.0347 24.657C21.9558 24.7329 21.8931 24.8239 21.8502 24.9246C21.8073 25.0254 21.7852 25.1337 21.7852 25.2432C21.7852 25.3527 21.8073 25.461 21.8502 25.5618C21.8931 25.6625 21.9558 25.7535 22.0347 25.8294C22.1136 25.9053 22.207 25.9645 22.3093 26.0035C22.4117 26.0424 22.5208 26.0603 22.6302 26.0561ZM25.7751 9.08337H29.1302C29.2396 9.08761 29.3488 9.06972 29.4511 9.03078C29.5534 8.99184 29.6468 8.93265 29.7257 8.85675C29.8046 8.78085 29.8674 8.6898 29.9102 8.58907C29.9531 8.48833 29.9752 8.37998 29.9752 8.2705C29.9752 8.16103 29.9531 8.05267 29.9102 7.95194C29.8674 7.8512 29.8046 7.76016 29.7257 7.68426C29.6468 7.60836 29.5534 7.54917 29.4511 7.51023C29.3488 7.47129 29.2396 7.4534 29.1302 7.45764H25.7751C25.6657 7.4534 25.5566 7.47129 25.4542 7.51023C25.3519 7.54917 25.2585 7.60836 25.1796 7.68426C25.1007 7.76016 25.038 7.8512 24.9951 7.95194C24.9522 8.05267 24.9301 8.16103 24.9301 8.2705C24.9301 8.37998 24.9522 8.48833 24.9951 8.58907C25.038 8.6898 25.1007 8.78085 25.1796 8.85675C25.2585 8.93265 25.3519 8.99184 25.4542 9.03078C25.5566 9.06972 25.6657 9.08761 25.7751 9.08337ZM31.4364 9.08337H32.2751C32.3845 9.08761 32.4937 9.06972 32.596 9.03078C32.6983 8.99184 32.7917 8.93265 32.8706 8.85675C32.9495 8.78085 33.0123 8.6898 33.0551 8.58907C33.098 8.48833 33.1201 8.37998 33.1201 8.2705C33.1201 8.16103 33.098 8.05267 33.0551 7.95194C33.0123 7.8512 32.9495 7.76016 32.8706 7.68426C32.7917 7.60836 32.6983 7.54917 32.596 7.51023C32.4937 7.47129 32.3845 7.4534 32.2751 7.45764H31.4368C31.3275 7.4534 31.2183 7.47129 31.116 7.51023C31.0137 7.54917 30.9203 7.60836 30.8414 7.68426C30.7625 7.76016 30.6997 7.8512 30.6568 7.95194C30.614 8.05267 30.5919 8.16103 30.5919 8.2705C30.5919 8.37998 30.614 8.48833 30.6568 8.58907C30.6997 8.6898 30.7625 8.78085 30.8414 8.85675C30.9203 8.93265 31.0137 8.99184 31.116 9.03078C31.2183 9.06972 31.327 9.08761 31.4364 9.08337ZM22.6302 9.08337H23.4689C23.5783 9.08761 23.6874 9.06972 23.7897 9.03078C23.892 8.99184 23.9854 8.93265 24.0643 8.85675C24.1432 8.78085 24.206 8.6898 24.2489 8.58907C24.2918 8.48833 24.3139 8.37998 24.3139 8.2705C24.3139 8.16103 24.2918 8.05267 24.2489 7.95194C24.206 7.8512 24.1432 7.76016 24.0643 7.68426C23.9854 7.60836 23.892 7.54917 23.7897 7.51023C23.6874 7.47129 23.5783 7.4534 23.4689 7.45764H22.6302C22.5208 7.4534 22.4117 7.47129 22.3093 7.51023C22.207 7.54917 22.1136 7.60836 22.0347 7.68426C21.9558 7.76016 21.8931 7.8512 21.8502 7.95194C21.8073 8.05267 21.7852 8.16103 21.7852 8.2705C21.7852 8.37998 21.8073 8.48833 21.8502 8.58907C21.8931 8.6898 21.9558 8.78085 22.0347 8.85675C22.1136 8.93265 22.207 8.99184 22.3093 9.03078C22.4117 9.06972 22.5208 9.08761 22.6302 9.08337ZM1.53765 52.5057H7.23196C7.44764 52.5057 7.65449 52.4201 7.80703 52.2676C7.95958 52.1151 8.04533 51.9083 8.04544 51.6927V50.8808C9.09482 51.6109 10.7303 52.5057 12.4451 52.5057H20.6705C20.8324 52.5057 20.9906 52.4569 21.1253 52.3666C21.6561 52.0087 23.3928 50.7372 23.4485 49.3983C23.4536 49.2796 23.4452 49.1608 23.4237 49.044C23.8781 48.7418 24.4084 48.2655 24.7318 47.5635C25.0275 46.9208 25.0938 46.2184 24.9303 45.4684C25.3761 45.1682 25.9162 44.6663 26.1749 43.8951C26.4474 43.0837 26.3396 42.1929 25.8544 41.2399C26.3112 40.6437 26.5454 39.9905 26.5519 39.2909C26.5654 37.8197 25.5518 36.7528 25.4363 36.6357C25.3606 36.5593 25.2705 36.4986 25.1712 36.4572C25.0719 36.4158 24.9654 36.3945 24.8579 36.3945H17.0978C17.9873 32.4581 16.5987 29.6833 16.534 29.5573C16.5115 29.5133 16.4849 29.4715 16.4547 29.4324C15.1824 27.7814 14.0379 27.1018 12.9572 27.3527C11.5092 27.6895 11.0923 29.556 11.0496 29.7675C11.04 29.815 11.0347 29.8632 11.0337 29.9115C10.9414 34.3441 9.21033 36.9115 8.04544 38.1475V37.4658C8.04533 37.2502 7.95958 37.0434 7.80703 36.8909C7.65449 36.7384 7.44764 36.6528 7.23196 36.6528H1.53765C1.32198 36.6528 1.11513 36.7384 0.962587 36.8909C0.810042 37.0434 0.72429 37.2502 0.724182 37.4658L0.724182 51.6923C0.724182 51.908 0.809887 52.1149 0.962443 52.2675C1.115 52.42 1.32191 52.5057 1.53765 52.5057ZM8.24881 40.1674C9.3596 39.2901 12.5008 36.2664 12.6582 30.0278C12.7628 29.6 13.0434 29.0008 13.3269 28.9362C13.3855 28.9227 13.9334 28.8487 15.1125 30.3557C15.3028 30.7811 16.3803 33.4444 15.2589 36.9611C15.2202 37.083 15.2108 37.2123 15.2315 37.3385C15.2521 37.4648 15.3023 37.5843 15.3779 37.6875C15.4534 37.7907 15.5523 37.8747 15.6664 37.9325C15.7805 37.9903 15.9066 38.0203 16.0346 38.0202H24.4719C24.6635 38.2911 24.9299 38.7605 24.925 39.2754C24.9217 39.6415 24.7835 39.9872 24.504 40.3248H20.8942C20.7853 40.3213 20.6768 40.3398 20.5751 40.3791C20.4735 40.4184 20.3808 40.4778 20.3025 40.5536C20.2242 40.6295 20.162 40.7203 20.1195 40.8206C20.0769 40.921 20.055 41.0289 20.055 41.1379C20.055 41.2468 20.0769 41.3547 20.1195 41.4551C20.162 41.5555 20.2242 41.6462 20.3025 41.7221C20.3808 41.7979 20.4735 41.8573 20.5751 41.8966C20.6768 41.9359 20.7853 41.9544 20.8942 41.9509H24.3905C24.6793 42.5061 24.7615 42.9816 24.6354 43.3688C24.4658 43.8882 23.9492 44.1774 23.7569 44.2701H20.7511C20.6417 44.2659 20.5325 44.2838 20.4302 44.3227C20.3279 44.3617 20.2345 44.4208 20.1556 44.4967C20.0767 44.5727 20.0139 44.6637 19.9711 44.7644C19.9282 44.8652 19.9061 44.9735 19.9061 45.083C19.9061 45.1925 19.9282 45.3008 19.9711 45.4016C20.0139 45.5023 20.0767 45.5933 20.1556 45.6692C20.2345 45.7451 20.3279 45.8043 20.4302 45.8433C20.5325 45.8822 20.6417 45.9001 20.7511 45.8959H23.3493C23.4144 46.2591 23.3888 46.5845 23.2574 46.8749C22.9247 47.6119 22.049 47.9401 22.0453 47.9413L22.0445 47.9417H20.6201C20.5112 47.9383 20.4026 47.9568 20.301 47.9961C20.1993 48.0354 20.1066 48.0947 20.0283 48.1706C19.9501 48.2464 19.8878 48.3372 19.8453 48.4376C19.8028 48.5379 19.7809 48.6458 19.7809 48.7548C19.7809 48.8638 19.8028 48.9717 19.8453 49.072C19.8878 49.1724 19.9501 49.2632 20.0283 49.339C20.1066 49.4149 20.1993 49.4742 20.301 49.5135C20.4026 49.5528 20.5112 49.5713 20.6201 49.5679H21.7309C21.5275 49.9144 20.9943 50.4521 20.4118 50.8796H12.4451C10.6941 50.8796 8.89958 49.5345 8.24881 48.9936V40.1674ZM2.35113 38.2789H6.41849V50.8796H2.35113V38.2789ZM51.973 37.0595H46.2787C46.0631 37.0595 45.8563 37.1451 45.7037 37.2975C45.5512 37.4499 45.4654 37.6566 45.4652 37.8722V37.923C44.3117 36.6113 42.7681 34.0899 42.6803 29.9115C42.6792 29.8632 42.6739 29.815 42.6644 29.7675C42.6217 29.556 42.2048 27.6891 40.7568 27.3527C39.6724 27.1018 38.5307 27.7819 37.2593 29.4324C37.2293 29.4715 37.2028 29.5133 37.1804 29.5573C37.1153 29.6833 35.7263 32.4581 36.6158 36.3945H28.8561C28.6389 36.3945 28.4307 36.4815 28.2777 36.6357C28.1622 36.7524 27.1486 37.8193 27.162 39.2909C27.169 39.9905 27.4028 40.6437 27.8596 41.2399C27.3744 42.1929 27.2666 43.0837 27.5391 43.8951C27.7974 44.6663 28.3379 45.1682 28.7837 45.4684C28.6202 46.2184 28.6865 46.9204 28.9822 47.5631C29.3055 48.2655 29.8363 48.7418 30.2903 49.0436C30.2687 49.1605 30.2604 49.2795 30.2654 49.3983C30.3212 50.7376 32.0575 52.0091 32.5887 52.3666C32.7229 52.4573 32.8816 52.5057 33.0435 52.5057H41.2689C42.8767 52.5057 44.4138 51.7187 45.4652 51.0187V51.6923C45.4653 51.9079 45.551 52.1147 45.7036 52.2672C45.8561 52.4197 46.063 52.5053 46.2787 52.5053H51.973C52.1886 52.5053 52.3955 52.4197 52.548 52.2672C52.7006 52.1147 52.7863 51.9079 52.7864 51.6923V37.8722C52.7862 37.6566 52.7004 37.4499 52.5479 37.2975C52.3954 37.1451 52.1886 37.0595 51.973 37.0595ZM45.4652 48.9976C44.657 49.6765 42.8877 50.8796 41.2689 50.8796H33.3009C32.7478 50.4733 32.2357 49.9657 32.0116 49.6187H33.2208C33.3297 49.6222 33.4382 49.6037 33.5399 49.5644C33.6416 49.5251 33.7343 49.4657 33.8126 49.3899C33.8908 49.314 33.9531 49.2232 33.9956 49.1229C34.0381 49.0225 34.06 48.9146 34.06 48.8056C34.06 48.6967 34.0381 48.5888 33.9956 48.4884C33.9531 48.3881 33.8908 48.2973 33.8126 48.2214C33.7343 48.1456 33.6416 48.0862 33.5399 48.0469C33.4382 48.0076 33.3297 47.9891 33.2208 47.9926H31.7675C31.7362 47.9763 31.7073 47.956 31.6736 47.9434C31.6646 47.9401 30.7893 47.6119 30.4562 46.8749C30.3281 46.5914 30.3021 46.2741 30.361 45.9215H33.2822C33.3911 45.9249 33.4997 45.9064 33.6013 45.8671C33.703 45.8278 33.7957 45.7685 33.874 45.6926C33.9523 45.6168 34.0145 45.526 34.057 45.4256C34.0995 45.3253 34.1214 45.2174 34.1214 45.1084C34.1214 44.9994 34.0995 44.8915 34.057 44.7912C34.0145 44.6908 33.9523 44.6 33.874 44.5242C33.7957 44.4483 33.703 44.389 33.6013 44.3497C33.4997 44.3104 33.3911 44.2919 33.2822 44.2953H30.0104C29.8953 44.2453 29.2742 43.9521 29.0814 43.3778C28.9505 42.9889 29.0322 42.5102 29.3226 41.9509H33.2261C33.3355 41.9552 33.4446 41.9373 33.5469 41.8983C33.6492 41.8594 33.7426 41.8002 33.8215 41.7243C33.9004 41.6484 33.9632 41.5574 34.0061 41.4566C34.049 41.3559 34.0711 41.2475 34.0711 41.1381C34.0711 41.0286 34.049 40.9202 34.0061 40.8195C33.9632 40.7188 33.9004 40.6277 33.8215 40.5518C33.7426 40.4759 33.6492 40.4167 33.5469 40.3778C33.4446 40.3388 33.3355 40.321 33.2261 40.3252H29.212C28.44 39.3747 28.9029 38.464 29.2319 38.0202H37.6798C37.8078 38.0203 37.9339 37.9902 38.048 37.9323C38.1621 37.8745 38.2609 37.7905 38.3364 37.6873C38.4119 37.584 38.462 37.4644 38.4825 37.3381C38.5031 37.2119 38.4935 37.0825 38.4547 36.9607C37.3317 33.4383 38.4144 30.773 38.6015 30.3565C39.779 28.8503 40.3265 28.9227 40.3871 28.9362C40.671 29.0012 40.9524 29.602 41.0553 30.0274C41.2132 36.2656 44.3548 39.2901 45.4652 40.1674V48.9976ZM51.1595 50.8796H47.0921V38.6856H51.1595V50.8796Z" fill="#AEAEFF"/>
<path id="Vector_4" d="M49.1249 41.9709C49.5739 41.9709 49.938 41.6068 49.938 41.1578C49.938 40.7087 49.5739 40.3447 49.1249 40.3447C48.6759 40.3447 48.3118 40.7087 48.3118 41.1578C48.3118 41.6068 48.6759 41.9709 49.1249 41.9709Z" fill="#AEAEFF"/>
<path id="Vector_5" d="M4.38436 41.9709C4.8334 41.9709 5.19742 41.6068 5.19742 41.1578C5.19742 40.7087 4.8334 40.3447 4.38436 40.3447C3.93531 40.3447 3.57129 40.7087 3.57129 41.1578C3.57129 41.6068 3.93531 41.9709 4.38436 41.9709Z" fill="#AEAEFF"/>
</g>
<defs>
<clipPath id="clip0_4968_2383">
<rect width="52.0623" height="52.0623" fill="white" transform="translate(0.724365 0.443359)"/>
</clipPath>
</defs>
</svg>
