<svg width="71" height="71" viewBox="0 0 71 71" fill="none" xmlns="http://www.w3.org/2000/svg">
<g clip-path="url(#clip0_4968_2363)">
<path d="M25.657 21.1701C28.5493 24.0624 38.0941 33.0287 41.2757 36.2103C41.8541 36.7888 42.4326 37.078 43.3003 37.078C44.168 37.078 44.7465 36.7888 45.6142 36.2103C50.5312 33.0287 64.9929 22.9055 67.8853 20.8809" stroke="#AEAEFF" stroke-width="1.73541" stroke-linecap="round" stroke-linejoin="round"/>
<path d="M2.22913 48.358H13.7985M2.22913 39.681H15.2447M2.22913 31.004H16.6909M2.22913 22.3269H18.137M44.1682 51.2504H23.6325C21.3186 51.2504 19.5832 49.515 19.5832 47.2011V46.3334L24.7894 22.6162C25.0787 20.8807 26.8141 19.4346 28.8387 19.4346H64.7038C67.0177 19.4346 68.7531 21.17 68.7531 23.4839V24.3516L63.8361 48.0688C63.5469 50.0935 61.5223 51.5396 59.4976 51.5396L44.1682 51.2504Z" stroke="#AEAEFF" stroke-width="2.60311" stroke-linecap="round" stroke-linejoin="round"/>
</g>
<defs>
<clipPath id="clip0_4968_2363">
<rect width="69.4163" height="69.4163" fill="white" transform="translate(0.781738 0.634766)"/>
</clipPath>
</defs>
</svg>
