<svg width="34" height="34" viewBox="0 0 34 34" fill="none" xmlns="http://www.w3.org/2000/svg">
<g id="download (43) 1">
<path id="Vector" d="M16.5115 3.23997V4.93933C16.5115 5.75427 15.8605 6.41127 15.0606 6.41127H3.33577C2.53592 6.41127 1.88489 5.75427 1.88489 4.93933V3.23997C1.88489 2.42504 2.53592 1.76172 3.33577 1.76172H15.0606C15.8605 1.76172 16.5115 2.42504 16.5115 3.23997Z" fill="#F7F7F7"/>
<path id="Vector_2" d="M16.5115 7.88841V9.58777C16.5115 10.4027 15.8605 11.0597 15.0606 11.0597H3.33577C2.53592 11.0597 1.88489 10.4027 1.88489 9.58777V7.88841C1.88489 7.07348 2.53592 6.41016 3.33577 6.41016H15.0606C15.8605 6.41016 16.5115 7.07348 16.5115 7.88841Z" fill="#F7F7F7"/>
<path id="Vector_3" d="M18.0496 3.23997V4.93933C18.0496 5.75427 17.3985 6.41127 16.5987 6.41127H4.87385C4.07401 6.41127 3.42297 5.75427 3.42297 4.93933V3.23997C3.42297 2.42504 4.07401 1.76172 4.87385 1.76172H16.5987C17.3985 1.76172 18.0496 2.42504 18.0496 3.23997ZM18.0496 7.88953V9.58889C18.0496 10.4038 17.3985 11.0608 16.5987 11.0608H4.87385C4.07401 11.0608 3.42297 10.4038 3.42297 9.58889V7.88953C3.42297 7.07459 4.07401 6.41127 4.87385 6.41127H16.5987C17.3985 6.41127 18.0496 7.07459 18.0496 7.88953Z" fill="url(#paint0_linear_4988_2391)"/>
<path id="Vector_4" d="M3.50628 5.41797C3.60421 5.70799 3.78861 5.95961 4.03373 6.13765C4.27884 6.3157 4.57242 6.41128 4.87345 6.41105H16.5983C16.8992 6.41115 17.1927 6.3155 17.4377 6.13747C17.6826 5.95943 17.867 5.70789 17.9649 5.41797H3.50628ZM17.9642 7.40414C17.8663 7.11421 17.682 6.86267 17.437 6.68464C17.192 6.5066 16.8992 6.41095 16.5983 6.41105H4.87345C4.57253 6.41095 4.27909 6.5066 4.0341 6.68464C3.7891 6.86267 3.60479 7.11421 3.5069 7.40414H17.9642ZM16.5115 12.5389V14.2382C16.5115 15.0532 15.8605 15.7102 15.0606 15.7102H3.33577C2.53592 15.7102 1.88489 15.0532 1.88489 14.2382V12.5389C1.88489 11.7239 2.53592 11.0606 3.33577 11.0606H15.0606C15.8605 11.0606 16.5115 11.7239 16.5115 12.5389Z" fill="#F7F7F7"/>
<path id="Vector_5" d="M18.0496 12.5368V14.2362C18.0496 15.0511 17.3985 15.7081 16.5987 15.7081H4.87385C4.07401 15.7081 3.42297 15.0511 3.42297 14.2362V12.5368C3.42297 11.7219 4.07401 11.0586 4.87385 11.0586H16.5987C17.3985 11.0586 18.0496 11.7219 18.0496 12.5368Z" fill="url(#paint1_linear_4988_2391)"/>
<path id="Vector_6" d="M17.9642 12.0517C17.8663 11.7618 17.682 11.5102 17.437 11.3322C17.192 11.1541 16.8986 11.0585 16.5977 11.0586H4.87345C4.57253 11.0585 4.27909 11.1541 4.0341 11.3322C3.7891 11.5102 3.60479 11.7618 3.5069 12.0517H17.9642ZM16.5115 17.1864V18.8858C16.5115 19.7007 15.8605 20.3577 15.0606 20.3577H3.33577C2.53592 20.3577 1.88489 19.7007 1.88489 18.8858V17.1864C1.88489 16.3715 2.53592 15.7081 3.33577 15.7081H15.0606C15.8605 15.7081 16.5115 16.3715 16.5115 17.1864Z" fill="#F7F7F7"/>
<path id="Vector_7" d="M18.0496 17.1872V18.8866C18.0496 19.7015 17.3985 20.3585 16.5987 20.3585H4.87385C4.07401 20.3585 3.42297 19.7015 3.42297 18.8866V17.1872C3.42297 16.3723 4.07401 15.709 4.87385 15.709H16.5987C17.3985 15.709 18.0496 16.3723 18.0496 17.1872Z" fill="url(#paint2_linear_4988_2391)"/>
<path id="Vector_8" d="M17.9642 16.7021C17.8663 16.4121 17.682 16.1606 17.437 15.9826C17.192 15.8045 16.8985 15.7089 16.5976 15.709H4.87339C4.57247 15.7089 4.27903 15.8045 4.03403 15.9826C3.78904 16.1606 3.60473 16.4121 3.50684 16.7021H17.9642Z" fill="#F7F7F7"/>
<path id="Vector_9" d="M31.6469 18.8437C31.6469 26.1989 25.7751 32.0431 18.7439 32.0848H18.6509C11.4771 32.0848 5.65503 26.1528 5.65503 18.8437C5.65503 11.5282 11.4771 5.60254 18.6509 5.60254C21.2613 5.60254 23.698 6.3922 25.7379 7.75043C29.2969 10.1068 31.6469 14.1941 31.6469 18.8437Z" fill="url(#paint3_linear_4988_2391)"/>
<path id="Vector_10" d="M19.5996 32.0469C19.2834 32.0721 18.9672 32.0848 18.6509 32.0848C11.4771 32.0848 5.65503 26.1528 5.65503 18.8437C5.65503 11.5282 11.4771 5.60254 18.6509 5.60254C18.9734 5.60254 19.302 5.61517 19.6182 5.64044C12.8722 6.11424 7.53993 11.8441 7.53993 18.8437C7.53993 25.8306 12.8598 31.5604 19.5996 32.0469Z" fill="#F7F7F7"/>
<path id="Vector_11" d="M28.7637 18.659C28.7637 24.392 24.186 28.9626 18.651 28.9626H18.6324C13.0521 28.95 8.53821 24.3446 8.53821 18.659C8.53821 12.9671 13.0645 8.35547 18.651 8.35547C24.2375 8.35547 28.7637 12.9671 28.7637 18.659Z" fill="#9797FE"/>
<path id="Vector_12" d="M20.0894 28.8552C19.6182 28.9247 19.1408 28.9626 18.651 28.9626C13.0645 28.9626 8.53821 24.3509 8.53821 18.659C8.53821 12.9671 13.0645 8.35547 18.651 8.35547C19.1408 8.35547 19.6182 8.39337 20.0894 8.46286C15.1912 9.1704 11.4214 13.4662 11.4214 18.659C11.4214 23.8519 15.1912 28.1477 20.0894 28.8552Z" fill="#F7F7F7"/>
<path id="Vector_13" d="M20.256 13.8375C20.5158 14.2016 20.7014 14.6151 20.8016 15.0536C20.8097 15.0871 20.8909 15.1231 20.938 15.1231C21.3652 15.1288 21.7918 15.1262 22.219 15.1262C22.5148 15.1262 22.5972 15.209 22.5985 15.5072C22.5991 15.7643 22.601 16.0214 22.5979 16.2785C22.5948 16.5217 22.4999 16.6152 22.2593 16.6159C21.8278 16.6171 21.3969 16.6171 20.9653 16.6159C20.8909 16.6159 20.8376 16.619 20.819 16.7169C20.5586 18.1023 19.7184 18.9716 18.443 19.4296C18.0822 19.5591 17.7008 19.628 17.3208 19.7265C17.3301 19.7398 17.3462 19.7707 17.3685 19.7947C18.7251 21.2945 19.9987 22.8662 21.2654 24.4437C21.3057 24.4936 21.3491 24.5466 21.3696 24.606C21.4279 24.7791 21.2896 24.9661 21.0949 24.9674C20.5257 24.9724 19.9571 24.9686 19.3879 24.9699C19.2708 24.9699 19.1945 24.908 19.122 24.8214C18.0326 23.5264 16.9444 22.2294 15.8494 20.9382C15.5165 20.5465 15.1655 20.1694 14.8183 19.7897C14.7795 19.7504 14.749 19.7035 14.7288 19.6518C14.7085 19.6001 14.6989 19.5446 14.7005 19.489C14.7055 19.1478 14.7011 18.8067 14.7024 18.4649C14.7036 18.2198 14.8047 18.1194 15.0496 18.1181C15.4588 18.1162 15.8674 18.1257 16.2748 18.1105C16.8489 18.0897 17.4063 17.988 17.9129 17.6898C18.2744 17.4763 18.541 17.1781 18.6854 16.7738C18.696 16.7422 18.7065 16.7119 18.7146 16.6803C18.7177 16.6677 18.7146 16.6525 18.7146 16.6165H15.0874C14.7805 16.6165 14.703 16.5388 14.703 16.2299V15.4718C14.7042 15.2185 14.7935 15.1269 15.0452 15.1269H18.6222C18.5379 15.0043 18.4833 14.9095 18.4133 14.8274C18.0809 14.4408 17.6382 14.2538 17.1571 14.197C16.6623 14.1388 16.1607 14.1382 15.6615 14.118C15.46 14.1104 15.2585 14.118 15.0558 14.1167C14.8016 14.1155 14.7036 14.0182 14.703 13.763V12.7105C14.703 12.4357 14.7867 12.3504 15.0564 12.3504C16.8874 12.3491 18.7183 12.3498 20.5487 12.3498H22.2289C22.4949 12.3498 22.5805 12.4395 22.5805 12.7136C22.5811 12.9708 22.5817 13.2279 22.5805 13.485C22.5805 13.7459 22.4906 13.8369 22.2302 13.8375H20.256Z" fill="#F7F7F7"/>
</g>
<defs>
<linearGradient id="paint0_linear_4988_2391" x1="10.7363" y1="1.76172" x2="10.7363" y2="11.0608" gradientUnits="userSpaceOnUse">
<stop stop-color="#9797FE"/>
<stop offset="1" stop-color="#9797FE" stop-opacity="0.5"/>
</linearGradient>
<linearGradient id="paint1_linear_4988_2391" x1="10.7363" y1="11.0586" x2="10.7363" y2="15.7081" gradientUnits="userSpaceOnUse">
<stop stop-color="#9797FE"/>
<stop offset="1" stop-color="#9797FE" stop-opacity="0.5"/>
</linearGradient>
<linearGradient id="paint2_linear_4988_2391" x1="10.7363" y1="15.709" x2="10.7363" y2="20.3585" gradientUnits="userSpaceOnUse">
<stop stop-color="#9797FE"/>
<stop offset="1" stop-color="#9797FE" stop-opacity="0.5"/>
</linearGradient>
<linearGradient id="paint3_linear_4988_2391" x1="18.6509" y1="5.60254" x2="18.6509" y2="32.0848" gradientUnits="userSpaceOnUse">
<stop stop-color="#9797FE"/>
<stop offset="1" stop-color="#9797FE" stop-opacity="0.5"/>
</linearGradient>
</defs>
</svg>
