<svg width="61" height="62" viewBox="0 0 61 62" fill="none" xmlns="http://www.w3.org/2000/svg">
<g id="download (16) 2">
<path id="Vector" d="M14.0787 54.1203H39.3868C40.3936 54.1203 41.3592 53.7204 42.0711 53.0085C42.783 52.2965 43.183 51.331 43.183 50.3241V43.2556L51.1449 35.2937C51.4977 34.9412 51.7775 34.5226 51.9684 34.0618C52.1594 33.6011 52.2576 33.1072 52.2576 32.6085C52.2576 32.1098 52.1594 31.6159 51.9684 31.1552C51.7775 30.6945 51.4977 30.2759 51.1449 29.9233L49.6644 28.4428C49.3118 28.09 48.8932 27.8102 48.4325 27.6193C47.9718 27.4283 47.4779 27.3301 46.9792 27.3301C46.4805 27.3301 45.9866 27.4283 45.5259 27.6193C45.0651 27.8102 44.6465 28.09 44.294 28.4428L43.183 29.5538V14.8929C43.183 13.8861 42.783 12.9205 42.0711 12.2086C41.3592 11.4966 40.3936 11.0967 39.3868 11.0967H14.0787C13.0719 11.0967 12.1063 11.4966 11.3944 12.2086C10.6825 12.9205 10.2825 13.8861 10.2825 14.8929V50.3241C10.2825 51.331 10.6825 52.2965 11.3944 53.0085C12.1063 53.7204 13.0719 54.1203 14.0787 54.1203ZM43.183 33.1324L46.4553 36.4047L36.7016 46.1584C36.4644 46.395 36.1432 46.5279 35.8082 46.5279H33.0598V43.7795C33.0617 43.4449 33.1943 43.1243 33.4293 42.8861L43.183 33.1324ZM47.8751 30.2321L49.3556 31.7126C49.4735 31.8302 49.567 31.9698 49.6307 32.1235C49.6945 32.2773 49.7274 32.4421 49.7274 32.6085C49.7274 32.775 49.6945 32.9398 49.6307 33.0935C49.567 33.2472 49.4735 33.3869 49.3556 33.5044L48.2446 34.6154L44.9723 31.3431L46.0833 30.2321C46.2008 30.1142 46.3405 30.0208 46.4942 29.957C46.6479 29.8932 46.8127 29.8603 46.9792 29.8603C47.1456 29.8603 47.3104 29.8932 47.4642 29.957C47.6179 30.0208 47.7575 30.1142 47.8751 30.2321ZM12.8133 14.8929C12.8133 14.5573 12.9467 14.2354 13.184 13.9981C13.4213 13.7608 13.7431 13.6275 14.0787 13.6275H39.3868C39.7224 13.6275 40.0442 13.7608 40.2816 13.9981C40.5189 14.2354 40.6522 14.5573 40.6522 14.8929V32.0846L31.64 41.0968C31.2867 41.4484 31.0066 41.8665 30.8159 42.3269C30.6252 42.7874 30.5277 43.2811 30.529 43.7795V46.5279C30.529 47.1992 30.7956 47.8429 31.2702 48.3175C31.7448 48.7921 32.3886 49.0587 33.0598 49.0587H35.8082C36.8137 49.0555 37.7775 48.6564 38.4909 47.9477L40.6522 45.7864V50.3241C40.6522 50.6597 40.5189 50.9816 40.2816 51.2189C40.0442 51.4562 39.7224 51.5895 39.3868 51.5895H14.0787C13.7431 51.5895 13.4213 51.4562 13.184 51.2189C12.9467 50.9816 12.8133 50.6597 12.8133 50.3241V14.8929Z" fill="#AEAEFF"/>
<path id="Vector_2" d="M21.6714 18.689H31.7946C32.1303 18.689 32.4521 18.5557 32.6894 18.3184C32.9267 18.0811 33.0601 17.7592 33.0601 17.4236C33.0601 17.088 32.9267 16.7661 32.6894 16.5288C32.4521 16.2915 32.1303 16.1582 31.7946 16.1582H21.6714C21.3358 16.1582 21.014 16.2915 20.7767 16.5288C20.5393 16.7661 20.406 17.088 20.406 17.4236C20.406 17.7592 20.5393 18.0811 20.7767 18.3184C21.014 18.5557 21.3358 18.689 21.6714 18.689ZM16.6098 26.2814H36.8563C37.1919 26.2814 37.5137 26.1481 37.751 25.9108C37.9883 25.6735 38.1217 25.3516 38.1217 25.016C38.1217 24.6804 37.9883 24.3586 37.751 24.1212C37.5137 23.8839 37.1919 23.7506 36.8563 23.7506H16.6098C16.2742 23.7506 15.9524 23.8839 15.715 24.1212C15.4777 24.3586 15.3444 24.6804 15.3444 25.016C15.3444 25.3516 15.4777 25.6735 15.715 25.9108C15.9524 26.1481 16.2742 26.2814 16.6098 26.2814ZM16.6098 31.343H36.8563C37.1919 31.343 37.5137 31.2097 37.751 30.9724C37.9883 30.7351 38.1217 30.4132 38.1217 30.0776C38.1217 29.742 37.9883 29.4202 37.751 29.1829C37.5137 28.9455 37.1919 28.8122 36.8563 28.8122H16.6098C16.2742 28.8122 15.9524 28.9455 15.715 29.1829C15.4777 29.4202 15.3444 29.742 15.3444 30.0776C15.3444 30.4132 15.4777 30.7351 15.715 30.9724C15.9524 31.2097 16.2742 31.343 16.6098 31.343ZM16.6098 36.4046H31.7946C32.1303 36.4046 32.4521 36.2713 32.6894 36.034C32.9267 35.7967 33.0601 35.4748 33.0601 35.1392C33.0601 34.8036 32.9267 34.4818 32.6894 34.2445C32.4521 34.0072 32.1303 33.8738 31.7946 33.8738H16.6098C16.2742 33.8738 15.9524 34.0072 15.715 34.2445C15.4777 34.4818 15.3444 34.8036 15.3444 35.1392C15.3444 35.4748 15.4777 35.7967 15.715 36.034C15.9524 36.2713 16.2742 36.4046 16.6098 36.4046ZM16.6098 41.4662H26.733C27.0686 41.4662 27.3905 41.3329 27.6278 41.0956C27.8651 40.8583 27.9984 40.5364 27.9984 40.2008C27.9984 39.8652 27.8651 39.5434 27.6278 39.3061C27.3905 39.0688 27.0686 38.9354 26.733 38.9354H16.6098C16.2742 38.9354 15.9524 39.0688 15.715 39.3061C15.4777 39.5434 15.3444 39.8652 15.3444 40.2008C15.3444 40.5364 15.4777 40.8583 15.715 41.0956C15.9524 41.3329 16.2742 41.4662 16.6098 41.4662Z" fill="#AEAEFF"/>
</g>
</svg>
