<svg width="102" height="47" viewBox="0 0 102 47" fill="none" xmlns="http://www.w3.org/2000/svg">
<g opacity="0.5">
<circle cx="99.5346" cy="2.83548" r="2.3013" transform="rotate(90 99.5346 2.83548)" fill="white"/>
<circle cx="85.726" cy="2.83548" r="2.3013" transform="rotate(90 85.726 2.83548)" fill="white"/>
<circle cx="71.9194" cy="2.83548" r="2.3013" transform="rotate(90 71.9194 2.83548)" fill="white"/>
<circle cx="58.1108" cy="2.83548" r="2.3013" transform="rotate(90 58.1108 2.83548)" fill="white"/>
<circle cx="44.3042" cy="2.83548" r="2.3013" transform="rotate(90 44.3042 2.83548)" fill="white"/>
<circle cx="30.4956" cy="2.83548" r="2.3013" transform="rotate(90 30.4956 2.83548)" fill="white"/>
<circle cx="16.687" cy="2.83548" r="2.3013" transform="rotate(90 16.687 2.83548)" fill="white"/>
<circle cx="2.88034" cy="2.83548" r="2.3013" transform="rotate(90 2.88034 2.83548)" fill="white"/>
<circle cx="99.5346" cy="16.6433" r="2.3013" transform="rotate(90 99.5346 16.6433)" fill="white"/>
<circle cx="85.726" cy="16.6433" r="2.3013" transform="rotate(90 85.726 16.6433)" fill="white"/>
<circle cx="71.9194" cy="16.6433" r="2.3013" transform="rotate(90 71.9194 16.6433)" fill="white"/>
<circle cx="58.1108" cy="16.6433" r="2.3013" transform="rotate(90 58.1108 16.6433)" fill="white"/>
<circle cx="44.3042" cy="16.6433" r="2.3013" transform="rotate(90 44.3042 16.6433)" fill="white"/>
<circle cx="30.4956" cy="16.6433" r="2.3013" transform="rotate(90 30.4956 16.6433)" fill="white"/>
<circle cx="16.687" cy="16.6433" r="2.3013" transform="rotate(90 16.687 16.6433)" fill="white"/>
<circle cx="2.88034" cy="16.6433" r="2.3013" transform="rotate(90 2.88034 16.6433)" fill="white"/>
<circle cx="99.5346" cy="30.4511" r="2.3013" transform="rotate(90 99.5346 30.4511)" fill="white"/>
<circle cx="85.726" cy="30.4511" r="2.3013" transform="rotate(90 85.726 30.4511)" fill="white"/>
<circle cx="71.9194" cy="30.4511" r="2.3013" transform="rotate(90 71.9194 30.4511)" fill="white"/>
<circle cx="58.1108" cy="30.4511" r="2.3013" transform="rotate(90 58.1108 30.4511)" fill="white"/>
<circle cx="44.3042" cy="30.4511" r="2.3013" transform="rotate(90 44.3042 30.4511)" fill="white"/>
<circle cx="30.4956" cy="30.4511" r="2.3013" transform="rotate(90 30.4956 30.4511)" fill="white"/>
<circle cx="16.687" cy="30.4511" r="2.3013" transform="rotate(90 16.687 30.4511)" fill="white"/>
<circle cx="2.88034" cy="30.4511" r="2.3013" transform="rotate(90 2.88034 30.4511)" fill="white"/>
<circle cx="99.5346" cy="44.2589" r="2.3013" transform="rotate(90 99.5346 44.2589)" fill="white"/>
<circle cx="85.726" cy="44.2592" r="2.3013" transform="rotate(90 85.726 44.2592)" fill="white"/>
<circle cx="71.9194" cy="44.2592" r="2.3013" transform="rotate(90 71.9194 44.2592)" fill="white"/>
<circle cx="58.1108" cy="44.2592" r="2.3013" transform="rotate(90 58.1108 44.2592)" fill="white"/>
<circle cx="44.3042" cy="44.2592" r="2.3013" transform="rotate(90 44.3042 44.2592)" fill="white"/>
<circle cx="30.4956" cy="44.2592" r="2.3013" transform="rotate(90 30.4956 44.2592)" fill="white"/>
<circle cx="16.687" cy="44.2592" r="2.3013" transform="rotate(90 16.687 44.2592)" fill="white"/>
<circle cx="2.88034" cy="44.2589" r="2.3013" transform="rotate(90 2.88034 44.2589)" fill="white"/>
</g>
</svg>
