<svg width="47" height="103" viewBox="0 0 47 103" fill="none" xmlns="http://www.w3.org/2000/svg">
<g opacity="0.5">
<circle cx="2.3013" cy="3.07767" r="2.3013" fill="white"/>
<circle cx="2.3013" cy="16.8858" r="2.3013" fill="white"/>
<circle cx="2.3013" cy="30.6933" r="2.3013" fill="white"/>
<circle cx="2.3013" cy="44.5011" r="2.3013" fill="white"/>
<circle cx="2.3013" cy="58.309" r="2.3013" fill="white"/>
<circle cx="2.3013" cy="72.1169" r="2.3013" fill="white"/>
<circle cx="2.3013" cy="85.9246" r="2.3013" fill="white"/>
<circle cx="2.3013" cy="99.7325" r="2.3013" fill="white"/>
<circle cx="16.1099" cy="3.07792" r="2.3013" fill="white"/>
<circle cx="16.1099" cy="16.886" r="2.3013" fill="white"/>
<circle cx="16.1099" cy="30.6935" r="2.3013" fill="white"/>
<circle cx="16.1099" cy="44.5014" r="2.3013" fill="white"/>
<circle cx="16.1099" cy="58.3092" r="2.3013" fill="white"/>
<circle cx="16.1099" cy="72.1171" r="2.3013" fill="white"/>
<circle cx="16.1099" cy="85.9248" r="2.3013" fill="white"/>
<circle cx="16.1099" cy="99.7327" r="2.3013" fill="white"/>
<circle cx="29.9165" cy="3.07792" r="2.3013" fill="white"/>
<circle cx="29.9165" cy="16.886" r="2.3013" fill="white"/>
<circle cx="29.9165" cy="30.6935" r="2.3013" fill="white"/>
<circle cx="29.9165" cy="44.5014" r="2.3013" fill="white"/>
<circle cx="29.9165" cy="58.3092" r="2.3013" fill="white"/>
<circle cx="29.9165" cy="72.1171" r="2.3013" fill="white"/>
<circle cx="29.9165" cy="85.9248" r="2.3013" fill="white"/>
<circle cx="29.9165" cy="99.7327" r="2.3013" fill="white"/>
<circle cx="43.7251" cy="3.07792" r="2.3013" fill="white"/>
<circle cx="43.7251" cy="16.886" r="2.3013" fill="white"/>
<circle cx="43.7251" cy="30.6935" r="2.3013" fill="white"/>
<circle cx="43.7251" cy="44.5014" r="2.3013" fill="white"/>
<circle cx="43.7251" cy="58.3092" r="2.3013" fill="white"/>
<circle cx="43.7251" cy="72.1171" r="2.3013" fill="white"/>
<circle cx="43.7251" cy="85.9248" r="2.3013" fill="white"/>
<circle cx="43.7251" cy="99.7327" r="2.3013" fill="white"/>
</g>
</svg>
